<svg width="185" height="164" viewBox="0 0 185 164" fill="none" xmlns="http://www.w3.org/2000/svg">
<path d="M24.5353 53.8301C24.66 53.6056 24.7691 53.3811 24.9405 53.0924C24.6288 53.1085 24.3794 53.1245 24.0365 53.1566C24.1924 52.8359 24.3015 52.6114 24.395 52.435C24.8002 52.1463 25.3925 52.4189 25.6419 51.8737C25.5796 51.5049 25.1899 51.6973 25.0496 51.5049C24.9249 51.3285 24.847 51.12 24.7223 50.8635C24.9561 50.7512 25.2055 50.5427 25.4549 50.5427C25.8445 50.5427 26.1407 50.3182 26.4368 50.1419C27.0447 49.773 27.6058 49.308 28.2292 48.859C28.1357 48.6345 28.0422 48.41 27.9487 48.1855C28.2136 48.0572 28.4942 47.9129 28.7747 47.7686C28.8682 47.7204 28.9774 47.6082 29.0553 47.6242C29.8346 47.7525 30.0996 47.1913 30.4113 46.6461C30.5048 46.4857 30.6139 46.3414 30.6451 46.2933C31.6114 45.7641 32.5622 46.0688 33.4662 45.9244C33.6221 45.8924 33.7935 46.0046 33.965 46.0688C34.6819 46.3414 35.3677 46.2291 35.9912 45.7962C36.6458 45.3471 37.3316 44.9944 38.1576 44.9302C38.6096 44.8981 39.0616 44.7218 39.3734 44.3048C39.576 44.3529 39.7474 44.385 39.9189 44.4171C40.3397 43.6955 40.9164 43.1984 41.7269 43.0059C42.1477 42.9097 42.553 42.7493 42.9738 42.6692C43.8622 42.4767 44.6415 42.0117 45.4364 41.6108C46.5742 41.0175 47.712 40.3921 48.881 39.8469C49.6135 39.5101 50.2837 38.9809 50.9851 38.564C51.8112 38.0669 52.684 37.6339 53.6348 37.4575L53.6036 37.4255C53.6036 37.8905 53.214 38.0509 52.9334 38.2273C52.0762 38.7564 51.1877 39.2215 50.3149 39.7186C49.9097 39.9431 49.5356 40.2157 49.1459 40.4883C48.5537 40.9373 47.8523 41.242 47.1665 41.5627C46.0443 42.0758 45.0468 42.7814 44.0337 43.471C43.9401 43.5351 43.8934 43.6313 43.8155 43.7115C43.8155 43.9681 43.9713 44.0643 44.1583 44.0322C44.5792 43.9841 45.0156 44.0964 45.3897 43.8077C45.4208 43.7917 45.452 43.7596 45.4832 43.7596C46.3716 43.7917 46.9795 43.1663 47.712 42.7975C48.803 42.2522 49.8785 41.691 50.8604 40.9373C51.0007 40.8251 51.1722 40.7609 51.3436 40.6968C52.4502 40.2959 53.2919 39.4941 54.1647 38.7404C54.5232 38.4357 54.8349 38.0829 55.1934 37.7943C55.6922 37.4255 55.9415 36.9284 56.0351 36.319L56.0195 36.3511C56.1909 36.3671 56.3624 36.3992 56.5182 36.3671C56.752 36.335 56.8767 36.1907 56.8767 35.9502C56.8767 35.6455 56.6585 35.6615 56.4403 35.6615L56.4247 35.6776C56.5494 35.5493 56.6585 35.3889 56.7988 35.2927C57.6404 34.7475 58.4042 34.0579 59.3549 33.7212C60.0719 33.4807 60.6018 32.8713 61.3656 32.7109C61.4591 32.6949 61.5214 32.5666 61.5993 32.4864C62.0358 31.9412 62.5813 31.6526 63.3138 31.6686C63.6256 30.7706 64.514 30.8989 65.1218 30.5301C65.34 30.7065 65.1998 30.8027 65.1062 30.9149C65.0751 30.947 65.0439 30.963 65.0283 30.9791C64.514 31.9573 63.6256 32.4704 62.706 32.9515C62.5189 33.0477 62.3942 33.2401 62.2228 33.3844C61.9734 33.5769 61.7552 33.8014 61.4279 33.9297C61.1162 34.0419 60.8668 34.3626 60.6174 34.6032C60.3836 34.8277 60.1498 35.0522 60.181 35.5012C60.2745 35.5493 60.3992 35.6295 60.5239 35.6295C61.1629 35.6295 61.724 35.3568 62.176 34.9239C62.9709 34.1702 63.9373 33.6731 64.7789 32.9835C65.34 32.5345 65.9791 32.1978 66.6181 31.8931C66.6337 31.9573 66.6337 32.0695 66.6805 32.0855C66.7584 32.1176 66.8519 32.1176 66.9454 32.1176L66.961 32.0374C66.9143 31.9893 66.8675 31.9573 66.8052 31.9412C66.7428 31.9252 66.6649 31.9412 66.6025 31.9412C66.7272 31.8129 66.8363 31.6205 66.9766 31.5884C67.6156 31.4281 68.0365 30.9791 68.3638 30.4499C68.6287 30.0169 68.9716 29.7122 69.3769 29.4236C69.6886 29.1991 69.9692 28.9265 70.2497 28.6539C70.3121 28.5897 70.3121 28.4614 70.3588 28.269C70.1874 28.269 70.0471 28.2369 69.938 28.269C69.3457 28.5256 68.7534 28.7822 68.1923 29.0548C67.9741 29.167 67.8027 29.3595 67.6156 29.5198C67.1169 29.9367 66.5714 30.2735 65.9479 30.4659C65.9011 30.482 65.8232 30.4178 65.7609 30.3857C65.8856 29.8726 66.4934 29.8566 66.7116 29.4236L66.6805 29.4396C66.8052 29.3434 67.0701 29.1991 67.0545 29.135C66.9298 28.702 67.1948 28.4454 67.491 28.3652C68.2235 28.1888 68.7378 27.6917 69.299 27.2748C69.5016 27.1305 69.7354 27.0343 69.9536 26.8899C70.0627 26.8098 70.203 26.7296 70.2809 26.6173C70.7485 25.9278 71.3719 25.4948 72.1356 25.2222C72.4941 25.0939 72.7903 24.8053 73.102 24.5647C73.3046 24.4044 73.4293 24.5166 73.5696 24.6129L73.5072 24.6449L73.554 24.5968C73.7722 24.5327 73.9748 24.4525 74.193 24.3884L74.1774 24.3563C73.9125 24.6449 73.6631 24.9336 73.4137 25.2062C73.6475 25.7193 73.8034 25.8316 74.0995 25.6712C74.5048 25.4467 74.8944 25.1901 75.2841 24.9175C75.5646 24.7091 75.7984 24.3884 76.1881 24.3563C76.2504 24.3563 76.3283 24.3082 76.3751 24.2601C76.8271 23.7149 77.3414 23.2819 77.9649 22.9772C78.2299 22.3518 78.791 22.3678 79.3053 22.3358C79.43 21.9349 79.1339 21.983 78.9624 21.9188L78.9936 21.9349C79.3988 21.6462 79.8041 21.3576 80.2249 21.085C80.4899 20.9086 80.786 20.7482 81.1289 20.8765C81.3159 20.9407 81.4718 20.9086 81.5965 20.7322C81.7991 20.4435 82.1576 20.2992 82.3135 19.9464C82.407 19.738 82.6564 19.6899 82.8746 19.77L82.859 19.738C82.7811 19.8502 82.6719 19.9625 82.6096 20.0908C82.3758 20.5237 82.5161 20.8605 82.9057 21.1652C83.4357 20.7322 83.9812 20.3473 84.4799 19.8983C85.1034 19.321 85.7736 19.0324 86.6153 19.2729C86.9426 19.3691 87.1764 19.2248 87.3322 18.9522C87.3946 18.84 87.3478 18.6796 87.3634 18.5513C87.2075 18.5353 87.0984 18.5193 86.9893 18.5193C86.9893 18.4551 86.9582 18.3749 86.9893 18.3429C87.1608 18.1985 87.3322 18.0863 87.5037 17.958C87.7686 17.7656 88.0492 17.6052 88.283 17.4128C88.6726 17.0921 89.0467 16.8034 89.5299 16.6431C89.9507 16.5148 90.3715 16.3223 90.7768 16.1299C91.1664 15.9375 91.4158 15.4724 91.7743 15.1678C92.0393 14.9433 92.3666 14.7508 92.6783 14.6065C93.255 14.366 93.7538 14.0453 94.1434 13.5482C94.7045 14.1415 94.9695 14.1254 95.3903 13.484C95.4371 13.4038 95.515 13.3397 95.5773 13.2595L95.5618 13.2435C95.5929 13.2916 95.6241 13.3557 95.6553 13.4038C95.702 13.3557 95.7644 13.2916 95.8111 13.2435L95.7956 13.2595C96.0917 13.0029 96.4034 12.7464 96.7151 12.5219C97.136 12.2011 97.6503 12.2813 98.1335 12.2172C98.227 12.2011 98.3829 12.3615 98.4608 12.4577C98.6322 12.6983 98.7725 12.9548 98.9284 13.1954C98.8193 13.5321 98.6946 13.8689 98.6167 14.2217C98.5699 14.4462 98.7881 14.6546 99.0219 14.6065C99.131 14.5905 99.2401 14.5744 99.318 14.5103C99.7545 14.1896 100.222 13.9009 100.581 13.5161C100.97 13.0991 101.344 12.8746 101.874 13.0831C102.466 12.6181 102.965 12.0568 103.698 11.8965C104.384 11.255 105.303 10.9183 105.88 10.1486L105.849 10.1325C105.911 10.2929 105.942 10.5013 106.067 10.5815C106.223 10.7098 106.441 10.7579 106.628 10.8381C107.096 10.6296 107.532 10.4212 108.046 10.1967C108.124 10.341 108.202 10.4853 108.311 10.6136C108.498 10.8541 108.717 10.9022 108.966 10.774C109.246 10.6296 109.465 10.341 109.823 10.4051L109.808 10.3731C109.324 11.0786 108.639 11.4635 107.875 11.672C107.127 11.8804 106.503 12.2813 105.864 12.6983C105.662 12.8265 105.397 13.035 105.366 13.2435C105.272 13.8047 104.882 13.9972 104.462 14.2217C103.776 14.5905 103.23 15.0876 103.059 15.9215C102.996 16.2261 103.152 16.4025 103.464 16.3544C103.885 16.2903 104.29 16.2261 104.773 16.146C104.914 15.9535 105.085 15.713 105.256 15.4724C105.786 14.6707 106.581 14.398 107.454 14.3179C107.672 14.3018 107.89 14.366 108.031 14.1575C108.155 13.9811 108.249 13.7887 108.327 13.5963C108.374 13.5 108.374 13.4038 108.389 13.3076C108.498 13.2916 108.576 13.2595 108.639 13.2916C109.324 13.6444 109.792 13.2755 110.213 12.7624C110.322 12.6181 110.415 12.4577 110.509 12.2974C110.587 12.1851 110.649 12.0087 110.774 11.9606C111.631 11.6078 111.787 10.5655 112.52 10.0844C112.582 10.0363 112.582 9.77974 112.52 9.7156C112.442 9.63542 112.255 9.61938 112.146 9.66749C111.803 9.79577 111.538 10.0363 111.335 10.357C111.226 10.5334 111.07 10.6777 110.899 10.8702C110.587 10.5976 110.322 10.3731 110.057 10.1325L110.088 10.1486C110.743 9.7156 111.475 9.39488 112.005 8.76948C112.146 8.60912 112.379 8.56102 112.566 8.44877C113.018 8.16012 113.486 7.87148 113.938 7.58283C114.218 7.40644 114.437 7.03762 114.873 7.21401C114.951 7.24608 115.138 7.10176 115.2 6.98951C115.387 6.63672 115.528 6.2679 115.699 5.88304C115.917 5.80286 116.229 5.78682 116.354 5.61043C116.588 5.30575 116.712 4.92089 116.884 4.58414C117.149 4.50396 117.445 4.42378 117.725 4.3436C117.757 4.64828 117.85 4.98503 117.788 5.28971C117.663 5.99529 117.99 6.4924 118.38 6.97347C118.723 7.3904 119.05 7.82337 119.378 8.22427C119.72 8.27237 119.939 8.14409 120.126 7.88751C120.453 7.40644 120.811 6.95744 121.154 6.50843C121.638 6.57258 121.575 7.10176 121.949 7.32626C122.261 7.32626 122.651 7.32626 123.087 7.32626C123.321 7.93562 123.555 8.48084 123.071 9.07416C122.978 9.18641 123.009 9.41091 122.978 9.58731C123.43 9.82785 123.866 9.69956 124.272 9.73163L124.256 9.7156C124.412 9.87595 124.615 10.0042 124.708 10.1806C125.082 10.9343 125.737 10.9664 126.36 10.774C126.89 10.6136 127.404 10.5655 127.95 10.5976C128.34 10.6136 128.651 10.5013 128.916 10.2287C129.337 9.77974 129.805 9.39488 130.039 8.76948C130.241 8.22427 130.74 7.87148 131.145 7.51869C132.002 7.50265 132.267 8.27237 132.828 8.70534C132.548 8.94588 132.267 9.17038 132.002 9.39488C131.987 9.7156 132.08 10.0523 131.753 10.2929C131.55 10.4372 131.597 10.6938 131.722 10.8862C131.862 11.1267 132.065 11.255 132.345 11.2069C132.595 11.1588 132.844 11.1107 133.078 11.0626C133.655 10.9504 134.06 10.6136 134.262 10.0523C134.371 9.7637 134.512 9.57127 134.714 9.34677C134.964 9.07416 135.088 8.65723 135.275 8.27237C135.587 8.17616 135.93 8.06391 136.32 7.93562C136.382 7.26212 136.756 6.82915 137.426 6.66879C137.676 6.60465 137.894 6.50843 138.143 6.42826C138.923 6.15565 139.079 5.94718 139.203 5.0171C138.86 4.77657 138.517 4.52 138.159 4.26342C138.268 3.79838 138.362 3.38145 138.455 2.94849C138.19 2.61173 137.816 2.46741 137.458 2.32309C137.099 2.17877 136.741 1.98634 136.351 1.89012C135.946 1.77787 135.525 1.72976 135.026 1.63355C134.933 1.55337 134.792 1.39301 134.621 1.26473C134.449 1.13644 134.262 1.04023 134.075 0.927975C134.044 0.607259 134.013 0.318614 133.997 0.0299697L133.982 0.0620417C134.59 -0.0341731 135.198 -0.0822809 135.696 0.414829C135.774 0.478972 135.915 0.543116 135.992 0.511044C136.491 0.366722 136.772 0.639331 137.083 0.992118C137.224 1.16851 137.52 1.23266 137.754 1.26473C138.206 1.34491 138.673 1.36094 139.141 1.40905C139.281 1.42508 139.437 1.44112 139.562 1.39301C140.014 1.20058 140.481 1.34491 140.949 1.31283C141.276 1.2968 141.479 1.48923 141.697 1.71373C141.666 1.98634 141.541 2.29102 141.619 2.53155C141.681 2.74002 141.962 2.86831 142.133 3.0447C142.18 3.23713 142.009 3.28524 141.9 3.36542C141.339 3.68613 141.276 3.84649 141.557 4.24739C141.775 4.55207 141.837 4.82468 141.791 5.17746C141.728 5.75475 141.666 6.33204 141.604 6.95744C141.806 7.18194 142.165 7.3423 142.243 7.75923C142.274 7.90355 142.445 8.11201 142.585 8.14409C143.053 8.25634 143.334 8.56102 143.552 8.96191C143.661 9.15434 143.801 9.23452 143.988 9.18641C144.238 9.12227 144.3 8.88173 144.284 8.65723C144.269 8.43273 144.206 8.22427 144.175 7.99976C144.144 7.82337 144.113 7.64698 144.082 7.43851C144.799 7.14987 145.375 7.3904 145.905 7.80733C146.186 8.0158 146.435 8.28841 146.716 8.56102C146.778 9.10623 146.778 9.10624 147.339 9.61938C148.259 9.12227 149.21 8.62516 150.207 8.09598C150.379 8.14409 150.612 8.22427 150.862 8.27237C151.438 8.40066 151.579 8.33652 151.875 7.75923C151.937 7.63094 152 7.50265 152.077 7.3423C152.592 7.27815 153.184 7.35833 153.418 6.47636C153.558 6.82915 153.636 6.92536 153.62 7.00554C153.465 7.71112 153.418 8.4648 153.044 9.10623C152.95 9.26659 152.904 9.44299 152.826 9.60334C152.436 10.357 152.576 11.1267 152.779 11.8644C152.857 12.1691 153.106 12.4256 153.309 12.7303C153.137 13.4519 152.763 14.1415 152.405 14.7989C152.109 15.3442 151.812 15.8413 151.641 16.4667C151.485 17.044 151.267 17.6373 150.862 18.1504C150.69 18.3749 150.534 18.6636 150.503 18.9362C150.425 19.6097 150.784 20.203 150.862 20.8605C150.908 21.2614 151.236 21.5661 151.594 21.7745C151.657 21.8066 151.688 21.8868 151.735 21.9349C151.968 22.7046 151.657 23.4422 151.594 24.1799C151.563 24.5487 151.314 24.8374 150.955 24.9977C150.597 25.1581 150.254 25.3665 149.911 25.575C149.147 26.024 148.664 26.6654 148.633 27.6116C148.633 27.7238 148.586 27.82 148.586 27.9323C148.586 27.9643 148.602 27.9964 148.633 28.1087C148.898 28.3171 149.194 28.5416 149.552 28.8142C149.256 29.2312 148.976 29.616 148.726 29.9528C148.711 30.498 149.163 30.498 149.428 30.7225C149.381 30.8187 149.35 30.931 149.303 31.0272L149.319 30.931V30.9951C149.163 31.2356 148.913 31.1715 148.68 31.1875L148.695 31.2036C148.617 31.2036 148.524 31.2036 148.446 31.2036L148.477 31.1715C148.477 31.2517 148.477 31.3479 148.477 31.4281L148.461 31.412C148.368 31.829 147.869 31.7969 147.713 32.1657C147.729 32.3902 147.729 32.7109 148.009 32.7751C148.43 32.8713 148.867 32.8392 149.225 32.5345C149.334 32.4383 149.428 32.31 149.475 32.1818C149.74 31.5083 150.207 30.963 150.566 30.3537C150.877 29.8245 151.298 29.4877 151.766 29.151C152.093 28.9265 152.436 28.9425 152.763 29.1831L152.81 29.2151L152.732 29.1991C152.826 29.151 152.904 29.1029 152.997 29.0548C153.059 29.1189 153.137 29.1831 153.137 29.2151C152.997 29.9528 153.387 30.5461 153.652 31.1555L153.683 31.1394C153.605 31.2196 153.511 31.3158 153.433 31.396L153.449 31.38C153.075 31.5724 153.356 31.8771 153.324 32.1497C153.059 32.294 152.701 32.3582 152.607 32.727C152.545 32.759 152.483 32.8072 152.42 32.8392C152.452 32.8392 152.498 32.8713 152.498 32.8553C152.529 32.8072 152.561 32.743 152.576 32.6949C152.701 32.759 152.81 32.8232 152.966 32.9034C152.81 33.0958 152.685 33.2722 152.561 33.4165C152.389 33.6089 152.358 33.8014 152.358 34.074C152.358 34.3947 152.311 34.8116 151.953 35.0522C151.781 35.1805 151.703 35.4531 151.61 35.5974C151.828 35.9341 151.984 36.2067 152.155 36.4794C152.093 36.4954 151.922 36.4473 152.062 36.6237C152.093 36.5756 152.109 36.5114 152.14 36.4633C152.233 36.4954 152.342 36.5275 152.42 36.5756C152.639 36.7039 152.794 36.6718 152.872 36.3992C152.888 36.3511 152.966 36.319 153.013 36.2869L152.981 36.2709C152.919 36.4794 152.888 36.7039 152.779 36.8802C152.685 37.0727 152.514 37.217 152.405 37.3774C152.748 38.0348 152.779 38.0509 152.452 38.564C152.233 38.8847 152.249 39.3177 151.922 39.6063C151.766 39.7507 152.031 40.1997 152.264 40.1516C152.654 40.0714 152.966 40.1355 153.278 40.36C153.278 40.5845 153.278 40.809 153.278 41.0656C153.169 41.0656 153.059 41.0977 152.966 41.0656C152.623 40.9373 152.28 40.809 152.015 41.2259C152.062 41.3382 152.124 41.4665 152.202 41.6429C151.844 41.7872 151.501 41.9315 151.173 42.0758C151.236 42.5088 151.485 42.7333 151.719 42.9578L151.703 42.9418C151.719 43.1823 151.719 43.4229 151.766 43.6634C151.797 43.8398 151.657 43.8237 151.579 43.8719C151.064 44.2728 150.986 44.85 150.94 45.4434C150.924 45.716 151.36 45.9886 151.579 45.8122C152.109 45.3792 152.763 45.3151 153.371 45.1227C153.745 44.8821 153.73 44.1926 154.4 44.2086C154.431 44.8661 154.213 45.3792 153.62 45.6839C153.839 46.2612 154.68 45.8443 154.789 46.5338C154.337 46.6942 153.917 46.7262 153.496 46.4215C153.34 46.3093 153.075 46.2452 152.95 46.5659C153.106 46.7583 153.246 46.9507 153.418 47.1271C153.511 47.2394 153.636 47.3997 153.745 47.3837C154.571 47.3516 155.039 48.1213 155.771 48.2977C155.958 48.3458 156.021 48.6826 155.865 48.7467C155.522 48.875 155.397 49.1316 155.319 49.4844C155.273 49.7089 155.086 49.9174 154.945 50.1739C155.803 50.6871 156.629 51.0719 157.579 51.104C157.751 51.104 157.953 51.088 158.094 50.9918C158.577 50.6229 159.122 50.3664 159.684 50.1258C159.871 50.0456 160.042 49.9013 160.182 49.741C160.665 49.2439 161.086 49.2278 161.523 49.7089C161.741 49.9494 161.959 50.1739 162.24 50.4786C162.209 50.6871 162.162 50.9757 162.115 51.3285C162.255 51.4087 162.442 51.5049 162.645 51.6332C163.783 50.2701 164.905 48.9392 166.027 47.5922C166.339 47.9289 166.604 48.2015 166.9 48.5062C167.274 48.2015 167.601 47.9289 167.897 47.6884C168.022 47.7205 168.116 47.7044 168.147 47.7525C168.396 48.0091 168.614 48.2977 168.864 48.5383C169.129 48.7948 169.534 48.5383 169.861 48.8109C170.064 48.9873 170.469 48.8911 170.843 48.9231C170.937 49.2759 170.843 49.6287 170.812 49.9815C170.781 50.3022 170.656 50.6229 170.641 50.9597C170.625 51.569 170.532 52.1303 170.017 52.5312C169.565 53.7339 168.599 54.5517 167.882 55.5459C167.742 55.7384 167.633 55.8827 167.648 56.1232C167.679 56.7326 167.555 57.2938 167.103 57.7428C167.056 57.7909 167.025 57.8711 166.993 57.9353C166.713 58.4805 166.838 58.8653 167.383 59.0898C167.555 59.154 167.726 59.17 167.913 59.2181L167.897 59.186C167.851 59.2823 167.742 59.4105 167.773 59.4747C167.96 59.9397 167.913 60.4048 167.695 60.8057C168.069 61.3188 168.396 61.7838 168.755 62.2649C169.238 62.2649 169.721 62.2168 170.251 62.6177C170.282 62.6979 170.267 62.9224 170.048 63.1309C169.83 63.3233 169.643 63.5478 169.441 63.7563C169.16 64.0289 169.051 64.3656 169.02 64.7825C169.207 64.9108 169.394 65.0552 169.596 65.1995C169.441 65.4881 169.347 65.6805 169.253 65.873C169.331 66.1937 169.908 66.7068 170.189 66.6908C170.282 66.6908 170.422 66.6587 170.485 66.5786C170.859 66.0333 171.342 66.1777 171.841 66.3059C172.215 66.4022 172.589 66.5465 172.947 66.6587C173.166 66.5144 173.384 66.3701 173.571 66.2578C174.007 66.3701 174.179 66.6748 174.335 66.9794C174.335 67.3483 174.023 67.3643 173.851 67.5407C173.415 67.9737 173.01 68.4387 172.355 68.5189C172.199 68.5349 172.059 68.7113 171.919 68.8396C171.623 69.1122 171.326 69.3688 171.061 69.6735C170.859 69.914 170.703 70.1866 170.578 70.363C170.563 70.812 171.28 70.6677 170.921 71.1327C171.061 71.1808 171.124 71.2289 171.186 71.2129C171.654 71.1488 172.043 71.0044 172.449 70.7158C173.166 70.2026 173.914 69.7216 174.849 69.5773C175.815 69.4329 176.626 68.8556 177.421 68.2784C177.717 68.0538 178.013 67.9416 178.387 67.8614C178.777 67.7652 179.229 67.7812 179.587 67.4926C179.821 67.3002 180.117 67.3002 180.413 67.3964L180.398 67.3803C180.366 67.4926 180.289 67.653 180.32 67.685C180.772 68.1982 180.99 68.9037 181.66 69.3207C182.081 69.3046 182.549 69.2886 182.782 68.7594C183.001 68.2463 182.876 67.9416 182.268 67.3322C182.517 67.1398 182.767 67.0757 183.032 67.2681C183.203 67.3964 183.375 67.5247 183.546 67.669C183.718 67.8133 183.873 67.9576 184.014 68.0699C184.014 68.4387 184.029 68.7274 184.014 69.032C183.998 69.3848 184.092 69.6895 184.263 69.9781C184.357 70.1385 184.481 70.2828 184.544 70.4432C184.824 71.1167 185.074 71.7581 184.98 72.5439C184.855 73.6503 184.684 74.7087 184.341 75.7831C184.014 76.8254 183.889 77.9319 183.64 79.0063C183.515 79.5034 183.328 79.9845 183.125 80.4495C182.736 81.4277 182.299 82.4059 181.91 83.3841C181.535 84.3462 181.052 85.2442 180.6 86.1583C179.992 87.4251 179.057 88.4354 178.325 89.606C177.826 90.4078 177.312 91.2095 176.86 92.0274C176.33 93.0056 175.644 93.8715 174.911 94.6572C174.21 95.4109 173.696 96.2769 173.197 97.1749C173.15 97.2711 173.103 97.3833 173.088 97.4795C172.901 98.3936 172.901 98.3936 172.433 99.0511C172.48 99.1793 172.511 99.3076 172.573 99.452C172.729 99.7887 172.682 100.093 172.449 100.382C172.153 100.751 171.903 101.152 171.732 101.601C171.623 101.889 171.545 102.114 171.701 102.435C171.841 102.707 171.763 103.012 171.56 103.268C171.295 103.605 171.046 103.974 170.734 104.279C170.064 104.936 169.394 105.61 168.505 105.962C168.412 106.011 168.318 106.107 168.225 106.123C167.539 106.203 167.103 106.7 166.604 107.133C166.105 107.566 165.575 107.935 165.076 108.352C164.359 108.945 163.58 109.474 163.003 110.244C162.255 110.501 161.897 111.254 161.289 111.703C160.728 112.12 160.26 112.681 159.761 113.211C158.982 114.028 158.234 114.862 157.439 115.664C156.753 116.354 155.974 116.947 155.444 117.781C155.226 118.118 154.789 118.166 154.649 118.631C154.556 118.984 154.197 119.272 153.932 119.577C153.683 119.882 153.402 120.17 153.137 120.475C152.997 120.635 152.857 120.812 152.685 120.94C151.937 121.517 151.454 122.351 150.737 122.976C150.706 122.993 150.675 123.025 150.659 123.057C149.63 124.837 147.916 125.911 146.482 127.29C145.578 128.172 144.565 128.942 143.599 129.776C143.38 130.257 142.788 130.273 142.523 130.77C142.305 131.187 141.775 131.427 141.385 131.748C140.996 132.069 140.653 132.454 140.248 132.742C139.873 132.999 139.624 133.352 139.421 133.736C139.001 134.522 138.393 135.132 137.723 135.709C136.85 136.463 136.008 137.264 135.104 137.922C135.166 138.563 134.948 139.092 134.527 139.445C133.561 140.263 132.688 141.193 131.722 141.995C131.644 142.059 131.55 142.123 131.457 142.187L131.426 142.139L131.472 142.171C130.491 142.941 129.509 143.727 128.527 144.497C127.732 145.122 126.937 145.731 126.142 146.341C125.815 146.325 125.861 146.726 125.628 146.806L125.643 146.838C125.565 146.693 125.472 146.661 125.378 146.838L125.394 146.806C125.394 146.902 125.394 146.998 125.409 147.078L125.378 147.062C124.256 147.976 123.134 148.89 122.027 149.804C120.656 150.927 119.393 152.178 117.866 153.092C117.507 153.3 117.258 153.701 116.93 153.99C116.666 154.23 116.385 154.455 116.089 154.663C115.699 154.936 115.263 155.128 114.904 155.417C113.922 156.235 112.878 156.924 111.834 157.646C110.852 158.319 109.932 159.073 108.966 159.763C108.327 160.228 107.657 160.661 106.971 161.062C106.628 161.254 106.223 161.318 105.88 161.478C105.693 161.559 105.443 161.719 105.397 161.879C105.288 162.344 104.898 162.376 104.602 162.553C104.009 162.906 103.916 162.841 103.667 162.024C103.885 161.767 104.103 161.494 104.337 161.222C104.711 160.789 105.132 160.5 105.755 160.596C105.942 160.629 106.207 160.564 106.363 160.452C107.064 159.891 107.735 159.282 108.42 158.688C108.452 158.672 108.467 158.624 108.498 158.56C108.467 158.303 108.452 158.031 108.42 157.726C108.342 157.726 108.218 157.678 108.14 157.71C106.971 158.319 105.786 158.945 104.617 159.57C103.838 159.987 102.996 160.292 102.217 160.709C101.609 161.029 101.017 161.366 100.409 161.671C100.16 161.799 99.8792 161.847 99.6142 161.927C99.583 161.799 99.583 161.719 99.5674 161.655C99.5362 161.511 99.5363 161.318 99.4427 161.254C99.318 161.158 99.1154 161.094 98.944 161.094C98.7881 161.11 98.6167 161.222 98.4608 161.302C97.7438 161.655 97.0113 161.943 96.1385 161.671C96.0761 161.895 95.9982 162.104 95.9358 162.344C94.8292 162.858 93.707 163.387 92.5536 163.884C92.3354 163.98 92.0704 164.012 91.8211 163.996C91.5405 163.964 91.2756 163.804 91.0106 163.788C90.7768 163.772 90.543 163.9 90.2157 163.996C90.3248 163.756 90.356 163.611 90.4495 163.515C90.6677 163.274 90.73 163.002 90.5898 162.697C90.4962 162.489 90.4183 162.232 90.5742 162.072C90.9638 161.655 90.8859 161.206 90.7768 160.741C90.7456 160.596 90.6989 160.468 90.6677 160.324C90.6833 160.324 90.7144 160.308 90.73 160.308C90.6989 160.324 90.6833 160.324 90.6521 160.34C90.356 159.955 89.8572 160.083 89.4675 159.891C89.3428 159.827 89.1246 159.939 88.9688 160.019C88.5791 160.196 88.2051 160.42 87.8154 160.58C87.6284 160.661 87.4102 160.677 87.1919 160.693C86.8958 160.693 86.8646 160.645 86.6308 160.083C87.0517 159.65 87.4413 159.153 87.1296 158.464C86.8491 157.854 86.5529 157.245 85.5086 157.373C85.8983 157.02 86.1633 156.828 86.3659 156.588C86.7088 156.187 86.5062 155.657 85.9762 155.641C85.4463 155.625 84.8852 155.609 84.402 155.898C84.0124 156.122 83.6383 156.427 83.1707 156.764C83.0616 156.748 82.8122 156.716 82.5784 156.684C82.5317 156.588 82.4849 156.523 82.4849 156.475C82.5784 155.914 82.6875 155.353 82.8122 154.743C82.1732 154.535 81.8459 154.07 81.7056 153.477C81.6744 153.316 81.69 153.06 81.7835 152.963C82.1576 152.611 82.0953 152.178 82.0953 151.761C81.9082 151.568 81.7524 151.392 81.5809 151.216C81.5965 151.216 81.6277 151.199 81.6432 151.199C81.6277 151.216 81.5965 151.232 81.5809 151.232C80.2405 151.584 78.9157 152.033 77.6688 152.691C77.2947 152.883 76.9206 153.108 76.531 153.3C76.3751 153.172 76.4063 153.044 76.5465 152.947C76.7803 152.787 77.0453 152.659 77.2791 152.498C77.6843 152.242 78.0272 151.921 78.0584 151.328C77.9181 151.135 77.7467 150.895 77.5752 150.638C77.6376 150.446 77.6532 150.189 77.7779 150.045C78.0896 149.74 78.1052 149.436 77.9649 149.051C77.9181 148.922 77.9649 148.762 77.9649 148.618C78.261 148.393 78.5572 148.185 78.8221 147.944C79.0715 147.72 79.2118 147.447 79.2274 147.078C79.2274 146.742 79.0715 146.533 78.8221 146.293C78.4013 146.453 77.9493 146.613 77.7467 147.078C77.5285 147.591 77.17 147.832 76.6868 147.848C76.0478 147.896 75.7361 148.265 75.5958 148.842C75.3308 148.938 75.097 149.051 74.8632 149.099C74.5671 149.163 74.3645 149.323 74.1307 149.516C73.8034 149.788 73.4449 150.029 73.0708 150.221C71.9642 150.799 70.8576 151.392 69.7821 152.065C69.5016 152.242 69.2678 152.482 68.9872 152.627C68.7067 152.771 68.5041 153.06 68.13 153.028C68.0209 153.012 67.8494 153.108 67.7871 153.22C67.2727 153.99 66.4311 154.262 65.7141 154.743C64.6387 155.465 63.5476 156.139 62.4722 156.876C62.1449 157.101 61.8955 157.421 61.6149 157.694C61.4123 157.886 61.2097 158.111 60.9915 158.287C60.82 158.416 60.633 158.496 60.7109 158.8C60.7265 158.881 60.4927 159.089 60.3369 159.137C59.7913 159.33 59.2614 159.538 58.7003 159.634C58.1236 159.731 57.6093 159.907 57.1105 160.228C56.7676 160.452 56.4247 160.789 55.9415 160.661V160.693C55.9571 160.516 55.9883 160.34 56.0195 160.099C55.1466 159.811 54.3206 159.474 53.401 160.051C53.1984 159.891 52.9802 159.731 52.7464 159.554C52.4346 159.506 52.1853 159.65 51.9671 159.843C51.78 160.003 51.5462 160.051 51.3748 159.891C51.1098 159.682 50.8448 159.714 50.5643 159.827C50.159 160.019 49.7538 160.083 49.333 160.035C49.068 159.731 49.0057 159.41 49.1304 159.089C49.3642 158.496 49.2395 157.935 49.0213 157.389C48.8654 157.02 48.8966 156.716 49.0213 156.331C49.2706 155.609 49.1615 155.385 48.5848 154.904C48.3666 154.711 48.1328 154.663 47.8835 154.695C47.6029 154.743 47.3379 154.856 47.073 154.968C46.9015 155.032 46.7612 155.16 46.6054 155.241C45.7481 155.641 45.5767 155.401 45.2494 154.888C45.1715 154.759 45.0779 154.647 45 154.535C44.1272 154.262 43.3011 154.294 42.5218 154.792C42.3815 154.888 42.1789 154.952 42.023 154.936C41.4308 154.904 40.8852 155.064 40.3553 155.273C39.6228 155.561 38.9681 155.529 38.3447 154.984C38.1109 154.775 37.8148 154.631 37.4719 154.599C37.0978 154.567 37.0354 154.326 37.2069 153.974C37.4407 153.525 37.6745 153.06 37.9239 152.627C38.1109 152.29 38.1576 151.985 37.9862 151.584C37.8615 151.296 37.9083 150.943 37.8615 150.606C37.7836 149.949 37.4407 149.596 36.8016 149.612C36.225 149.612 35.6638 149.692 35.0872 149.724C34.8378 149.74 34.5884 149.756 34.3546 149.708C33.8247 149.596 33.3103 149.484 32.7648 149.58C32.5466 149.628 32.2349 149.548 32.0634 149.403C31.4867 148.971 30.8009 148.714 30.3178 148.153C30.0216 147.816 29.6787 147.575 29.2111 147.559C29.0553 147.559 28.8994 147.399 28.7436 147.319C28.4162 146.597 28.65 145.94 28.9929 145.314C29.1644 144.994 29.3358 144.689 29.5073 144.368C29.6631 144.048 29.9593 143.791 30.2243 143.55C30.5516 143.23 30.7386 142.861 30.8633 142.348C29.8814 142.316 28.915 142.027 28.1357 142.829C27.9019 142.765 27.6993 142.717 27.4655 142.668C27.4655 142.412 27.4499 142.187 27.4655 141.979C27.4967 141.514 27.6213 141.065 27.4343 140.584C27.2629 140.151 27.4187 139.75 27.6681 139.349C28.463 138.082 29.4138 136.928 30.1463 135.613C30.3334 135.276 30.7074 135.051 31.0036 134.795C31.3153 134.522 31.2685 134.202 30.8633 134.057C30.6295 133.977 30.3801 133.945 30.1619 133.897C29.2423 134.538 28.9462 135.789 27.8551 136.286C27.6525 135.982 27.4499 135.693 27.2317 135.372C27.0758 135.468 26.9356 135.516 26.842 135.613C26.2653 136.206 25.6887 136.815 25.112 137.425C24.8158 137.745 24.6911 138.082 24.8002 138.531C24.8626 138.772 24.8782 139.044 24.847 139.285C24.8158 139.493 24.8626 139.638 24.9717 139.798C25.2055 140.103 25.0184 140.359 24.8314 140.584C24.6756 140.776 24.4418 140.808 24.2547 140.664C23.943 140.423 23.678 140.151 23.3507 139.846C23.491 139.253 23.2104 138.643 23.4442 138.034C23.5066 137.858 23.4442 137.569 23.3351 137.409C22.9455 136.863 23.0234 136.302 23.2416 135.725C23.2572 135.693 23.2416 135.645 23.2416 135.549C22.8208 135.26 22.8831 134.699 22.6649 134.202C22.5402 134.153 22.4 134.121 22.2753 134.073C21.3245 133.801 21.3245 133.801 20.5764 134.378C20.3893 134.121 20.5764 133.945 20.7166 133.801C21.1219 133.384 21.496 132.951 21.9012 132.518C22.6649 131.7 23.5222 130.962 24.3327 130.177C25.2522 129.295 26.1407 128.397 27.0447 127.499C27.1226 127.418 27.1849 127.21 27.1382 127.13C27.0914 127.034 26.9044 126.953 26.7797 126.969C26.468 126.985 26.1407 127.05 25.8289 127.098C25.6263 127.13 25.4081 127.178 25.2055 127.21C25.112 127.098 25.0496 127.018 24.9873 126.937C24.847 126.777 24.7379 126.536 24.5664 126.472C24.2859 126.36 23.9898 126.488 23.7715 126.697C23.491 126.969 23.2416 127.29 22.9767 127.595C22.7584 127.835 22.5714 128.124 22.3376 128.332C21.8856 128.749 21.3557 129.086 20.9504 129.551C20.5608 130.016 20.3114 130.593 19.9685 131.107C19.7971 131.379 19.61 131.668 19.2515 131.748C18.8307 131.668 18.6593 131.331 18.6281 130.962C18.6125 130.658 18.7995 130.433 19.0489 130.241C19.3918 129.984 19.688 129.647 19.9685 129.311C20.3893 128.814 20.7634 128.268 21.3557 127.948C21.5271 127.851 21.6518 127.627 21.7921 127.483C21.948 127.338 22.0727 127.114 22.2597 127.066C22.8364 126.873 23.0858 126.36 23.3819 125.927C23.6313 125.574 23.6313 125.141 23.4442 124.772C23.2728 124.42 22.9922 124.115 22.7429 123.794C22.4779 123.458 22.0727 123.409 21.6986 123.393C21.418 122.912 21.3245 122.479 21.5427 121.998C21.7765 121.453 21.9791 120.908 22.6026 120.683C22.8987 120.571 23.1481 120.331 23.3975 120.138C23.943 119.721 24.5197 119.352 25.2211 119.256C25.3925 119.224 25.564 119.16 25.7198 119.08C26.8265 118.486 27.9019 117.829 28.9462 117.139C29.5229 116.771 30.0684 116.354 30.6607 116.033C32.0478 115.263 33.2792 114.253 34.604 113.371C35.3054 112.906 35.9132 112.345 36.3808 111.623C36.4743 111.479 36.5211 111.286 36.599 111.046C35.7574 110.902 35.0092 110.853 34.3702 111.495C33.9805 111.896 33.5753 112.249 32.9518 112.104L32.9674 112.12C33.2012 111.912 33.4194 111.687 33.6688 111.479C34.1364 111.078 34.6196 110.709 35.0716 110.292C35.7885 109.635 36.4432 108.897 37.1913 108.272C37.8148 107.742 38.2668 107.101 38.7032 106.428C39.0305 105.946 39.3578 105.465 39.7942 105.064C40.0903 104.792 40.0903 104.776 40.2306 104.134C40.0436 103.91 39.841 104.006 39.6539 104.118C38.5317 104.776 37.5186 105.594 36.5834 106.492C36.147 106.909 35.6171 107.261 35.3365 107.855C35.2586 108.031 35.0248 108.143 34.8378 108.24C34.2455 108.592 33.7 108.993 33.2012 109.474C32.4843 110.148 31.7205 110.757 30.8321 111.158C30.6607 111.014 30.7854 110.885 30.8789 110.805C31.5179 110.148 32.1414 109.506 32.796 108.865C32.983 108.689 33.1856 108.528 33.3883 108.384C34.1052 107.823 34.8222 107.293 35.1339 106.363C35.2118 106.139 35.4145 105.962 35.5236 105.738C35.5859 105.594 35.5859 105.401 35.6015 105.241C35.3833 104.984 35.1807 105.129 35.0248 105.257C34.5884 105.626 34.1364 106.011 33.7467 106.428C33.3727 106.828 32.9518 107.149 32.4843 107.438C32.1414 107.646 31.8608 107.919 31.5179 108.143C31.3776 108.24 31.2062 108.256 30.9256 108.336C31.0971 107.775 31.4867 107.55 31.7205 107.213C31.9699 106.86 32.2972 106.572 32.2972 106.123C32.1414 105.914 32.0011 106.011 31.892 106.091C31.6582 106.251 31.44 106.46 31.2218 106.636C30.7542 107.037 30.3022 107.454 29.7411 107.71C29.4605 107.839 29.2111 108.079 28.9774 108.304C28.4318 108.785 27.9175 109.298 27.3408 109.747C26.3121 110.549 25.4081 111.495 24.4106 112.329C24.1924 112.521 24.0209 112.778 23.6936 112.794C23.5689 112.794 23.3663 112.794 23.304 112.714C23.2104 112.585 23.1637 112.377 23.1949 112.216C23.226 112.056 23.3507 111.864 23.4754 111.751C24.4418 110.982 25.0808 109.891 25.9225 108.993C26.2342 108.657 26.5615 108.32 26.7641 107.871C26.92 107.55 27.2005 107.277 27.4499 107.021C27.824 106.636 28.2136 106.235 28.6345 105.898C29.0553 105.546 29.2111 105.081 29.2891 104.535C29.0709 104.391 28.8682 104.247 28.6968 104.134C28.5721 104.183 28.4942 104.183 28.4318 104.215C27.0291 105.417 25.6263 106.636 24.2236 107.839C24.0833 107.951 23.943 108.063 23.7871 108.159C23.3351 108.448 23.2104 108.416 22.6649 107.823C23.5222 106.828 24.4418 105.85 24.7691 104.407C24.6288 104.407 24.5041 104.375 24.395 104.407C23.5066 104.68 22.8675 105.337 22.135 105.866C21.7298 106.155 21.3089 106.444 20.8881 106.716L20.9037 106.732C20.9816 106.203 21.4492 105.995 21.7609 105.658C22.4467 104.904 23.1481 104.183 23.6001 103.252C23.756 102.932 23.9898 102.643 24.2391 102.403C24.7535 101.905 25.1276 101.376 25.0496 100.59C25.0184 100.27 25.0964 99.9491 25.1276 99.6283C24.6756 98.9869 24.0677 99.003 23.491 99.2595C22.8987 99.5161 22.2909 99.7085 21.6518 99.7887C21.3401 99.8368 21.0284 99.9651 20.7478 100.125C20.2179 100.43 19.7191 100.382 19.2515 99.9972C18.971 99.7727 18.706 99.5321 18.4411 99.2916C18.1449 99.019 17.8644 98.7464 17.5526 98.4257C17.3033 98.5379 17.0695 98.6181 16.8824 98.7624C16.4928 99.0511 16.1031 99.0992 15.6823 98.9067V98.9388C15.7602 98.6502 15.8382 98.3776 15.9473 98.0408C15.6044 97.6078 15.3238 97.1268 15.3706 96.4853C15.3862 96.2288 15.1524 95.9561 15.0588 95.6835C14.8874 95.2185 14.8562 94.7695 15.2303 94.3526C15.4329 94.112 15.5576 93.7913 15.6667 93.4866C15.807 93.1018 15.542 92.7009 15.1524 92.7169C14.8718 92.7329 14.5913 92.8292 14.3419 92.9575C13.921 93.1659 13.5158 93.4065 13.1262 93.6791C12.6897 93.9837 12.2221 94.08 11.7078 94.1281C11.2402 94.1601 10.835 94.1441 10.5856 93.7111C10.383 93.3583 9.97773 93.5347 9.69718 93.2942C9.80628 92.8131 10.0089 92.3641 10.3518 91.9953C10.7415 91.5623 11.0688 91.0813 11.0376 90.3596C10.757 90.1672 10.4453 89.9427 10.1492 89.7343C9.46338 89.638 9.18283 90.2955 8.49704 90.5681C8.762 90.1833 8.93345 89.9267 9.13607 89.638C9.13607 89.606 9.16724 89.5418 9.15166 89.4777C8.9958 88.6438 8.85552 88.5316 8.12297 88.5636C7.98269 88.5636 7.84241 88.5636 7.68655 88.5957C7.46835 88.6278 7.26572 88.6599 7.03193 88.708C6.79814 88.4674 6.68903 88.1948 6.75138 87.826C6.79814 87.5373 6.89165 87.2166 6.79814 86.9761C6.65786 86.5752 6.70462 86.3026 7.01634 86.014C7.12545 85.9177 7.10986 85.6772 7.15662 85.5008C7.28131 85.0518 7.43717 84.683 7.90476 84.4104C8.48145 84.0736 8.94904 83.5284 9.4478 83.0634C9.47897 83.0794 9.49456 83.0954 9.52573 83.1115C9.49456 83.0954 9.46338 83.0954 9.43221 83.0794C9.94656 82.8228 10.4297 82.5502 10.835 82.1172C11.2402 81.6843 11.7701 81.3796 12.2221 80.9947C12.5339 80.7221 12.8456 80.4335 12.9391 79.9364C13.017 79.5034 13.4846 79.2629 13.8431 79.0704C14.0613 78.9582 14.2639 78.8459 14.451 78.6856C14.7315 78.4611 14.9965 78.2206 15.4017 78.2206C15.4953 78.2206 15.6044 78.1564 15.6979 78.1083C16.5551 77.5791 17.4124 77.066 18.254 76.5208C18.4722 76.3764 18.6437 76.2161 18.9086 76.2C19.0022 76.2 19.1113 76.1359 19.2048 76.0718C20.514 74.9974 22.0415 74.2437 23.3195 73.1372C23.491 72.9929 23.6313 72.8165 23.8339 72.7363C24.2859 72.5439 24.5976 72.2071 24.847 71.7902C25.112 71.3412 25.5016 71.0525 26.016 70.8922C26.4056 70.7799 26.7485 70.5234 27.0758 70.2026C27.5902 69.6574 28.2448 69.2405 28.8527 68.7755C29.2423 68.4708 29.5229 68.134 29.554 67.6369C29.367 67.4285 29.1956 67.5086 29.0397 67.5888C28.4162 67.9576 27.7928 68.3104 27.1849 68.7113C26.6862 69.0481 26.1251 69.2886 25.6731 69.7376C25.4704 69.9461 25.0808 70.0904 24.8002 70.0583C24.3482 70.0102 24.0365 70.1866 23.7092 70.4111C23.4754 70.5715 23.226 70.7479 22.9767 70.8601C22.8208 70.9243 22.6182 70.9563 22.4623 70.9243C22.1038 70.8441 21.87 71.0044 21.7921 71.2931C21.6051 71.9185 21.0595 72.0628 20.6075 72.3354C19.8594 72.0468 19.4074 72.8646 18.7372 72.8806C18.6437 72.8806 18.5346 72.9608 18.4566 73.041C17.2721 74.1795 15.8537 74.9813 14.5757 75.9916C14.4354 76.1038 14.2639 76.2 14.0925 76.2C12.8456 76.2161 11.9728 76.9858 11.0999 77.7395C10.9908 77.8357 10.8817 77.964 10.757 77.98C10.1648 78.0762 9.71276 78.445 9.24518 78.7818C8.5438 79.2789 7.84241 79.8081 7.10986 80.2731C6.6111 80.5938 6.1591 80.9146 5.86296 81.4598C5.80062 81.572 5.62917 81.6201 5.45772 81.7324C5.33303 81.54 5.23951 81.3636 5.11482 81.2032C4.83427 80.8184 4.53813 80.4014 3.97703 80.3373C3.57179 80.2892 3.49385 79.9524 3.74323 79.6317C4.66282 78.3809 4.81869 78.2366 6.19027 77.2584C7.00076 76.649 7.81124 76.0717 8.6529 75.5426C9.13607 75.2379 9.65042 74.9653 10.118 74.6446C10.2583 74.5484 10.4453 74.5163 10.6168 74.4521C10.8194 74.372 11.0688 74.3559 11.1935 74.2116C11.7234 73.6183 12.4559 73.3938 13.1262 73.057C13.3755 72.9287 13.6249 72.7684 13.8431 72.592C14.373 72.159 14.9342 71.7742 15.5732 71.5015C15.9628 71.3251 16.3213 71.0686 16.6798 70.8441C16.8045 70.7639 16.898 70.6196 17.0227 70.5875C18.1293 70.3951 18.8151 69.4329 19.7815 69C20.2646 68.7755 20.6543 68.3585 21.0907 68.0538C21.9168 67.4766 22.7117 66.8512 23.5845 66.3701C24.7223 65.7447 25.7354 64.9429 26.8265 64.2534C27.0447 64.1251 27.2317 63.9487 27.4187 63.7883C28.2916 63.0346 29.18 62.297 30.2087 61.7518C30.723 61.4792 31.0503 60.966 31.1906 60.3727C31.2218 60.2284 31.175 59.9878 31.0659 59.8756C30.91 59.6832 30.6918 59.5549 30.536 59.4266C28.463 60.6293 26.4368 61.7999 24.4106 62.9705C24.1612 63.1148 23.8962 63.2591 23.678 63.4195C22.9767 63.9326 22.2285 64.3816 21.4804 64.7986C20.7322 65.2155 20.0309 65.7447 19.3139 66.2258C19.1113 66.3701 18.8931 66.4984 18.6593 66.6106C17.1474 67.3803 15.6511 68.1501 14.2484 69.1282C13.6561 69.5452 13.0015 69.8499 12.3936 70.2347C11.661 70.6998 10.9597 71.1969 10.2427 71.694C9.51014 72.2071 8.762 72.7203 8.02945 73.2494C7.59303 73.5541 7.17221 73.8909 6.73579 74.2116C6.12793 73.49 5.90972 73.3617 5.20834 73.3777C4.97455 73.3777 4.66282 73.4258 4.50696 73.5702C3.83675 74.1475 2.9951 74.404 2.3093 74.9172C1.91964 75.2058 1.60792 75.5105 1.38971 75.9755C1.21826 76.3283 0.953298 76.633 0.73509 76.9537C-0.0753938 76.5368 -0.21567 75.9755 0.314262 75.3822C0.454538 75.2219 0.657159 75.0936 0.750677 74.9011C0.875367 74.6446 1.0624 74.5163 1.31178 74.4521C1.71702 74.3559 2.01316 74.1154 2.3093 73.8428C2.58985 73.5862 2.83923 73.2815 3.26006 73.1693C3.52503 73.0891 3.72765 72.7363 3.94586 72.4958C4.16406 72.2552 4.3511 71.9826 4.70958 71.9345C4.83427 71.9185 4.99013 71.8383 5.06806 71.7261C5.41096 71.261 5.90972 71.0525 6.39289 70.812C7.15662 70.4271 7.858 69.914 8.46586 69.3207C8.83993 68.9519 9.12049 68.4387 9.36987 67.9576C9.4478 67.7973 9.49456 67.653 9.65042 67.5567C10.2895 67.1077 11.022 66.9634 11.7546 66.8191C12.0351 66.771 12.3157 66.7389 12.5806 66.6267C13.1106 66.4022 13.6873 66.2258 14.1237 65.873C14.7939 65.3117 15.5888 64.991 16.3213 64.542C16.7889 64.2694 17.2721 64.0128 17.6617 63.66C18.0826 63.2912 18.5813 63.0988 19.0645 62.8582C19.5633 62.6177 19.9841 62.281 20.2646 61.7999C20.3738 61.6235 20.3893 61.399 20.4517 61.1585C19.5789 60.9821 18.971 61.4631 18.332 61.8159C18.1137 61.9442 17.9267 62.1046 17.6462 62.0565C17.6462 62.0404 17.6306 62.0083 17.6306 61.9923C17.6462 62.0244 17.6617 62.0404 17.6617 62.0725C17.5526 62.281 17.3812 62.297 17.1942 62.2649L17.2253 62.297C17.2097 62.0084 17.1942 61.7197 17.1942 61.5112C17.6929 61.1585 18.1449 60.8858 18.5346 60.517C18.8931 60.1963 19.4386 60.3406 19.7347 59.9237C20.3738 59.7152 20.7322 59.1059 21.2778 58.8012C21.8389 58.4965 22.4779 58.3682 23.039 58.0796C23.5378 57.807 23.9742 57.4221 24.4418 57.0854C24.6132 56.9571 24.7847 56.7807 24.9717 56.7326C25.6107 56.5722 25.9069 56.1232 26.0783 55.4657C25.9692 55.2893 25.8601 55.0648 25.7198 54.8403C25.8757 54.4394 26.203 54.1508 26.5615 53.9103C26.7329 53.798 26.9044 53.6537 27.0758 53.5254C27.3876 53.2849 27.4187 52.9962 27.2785 52.6595C26.1874 52.4029 26.1562 52.3227 25.486 53.4452C25.2055 53.5414 24.8782 53.6858 24.5353 53.8301ZM34.6819 129.663L34.7287 129.647L34.7131 129.695C34.6975 129.712 34.6663 129.712 34.6507 129.728C34.6663 129.695 34.6663 129.679 34.6819 129.663ZM37.7056 47.1592C37.7212 47.1271 37.7368 47.1111 37.7524 47.079C37.7368 47.1111 37.7368 47.1432 37.7056 47.1592C37.6901 47.1752 37.6745 47.1913 37.6433 47.1913C37.6745 47.1752 37.6901 47.1752 37.7056 47.1592ZM166.822 63.8204C166.806 63.8685 166.791 63.9326 166.775 63.9808C166.791 63.9166 166.791 63.8525 166.806 63.7883C166.869 63.7723 166.916 63.7723 166.978 63.7563C166.962 63.7242 166.931 63.6761 166.916 63.644C166.884 63.7081 166.853 63.7723 166.822 63.8204ZM136.398 8.56102C136.148 8.56102 135.899 8.52895 135.665 8.56102C135.556 8.57705 135.431 8.72137 135.4 8.83363C135.353 9.02606 135.54 9.05813 135.665 9.05813C135.992 9.05813 136.289 8.94588 136.46 8.62516C136.507 8.56102 136.538 8.51291 136.585 8.44877C136.522 8.48084 136.46 8.51291 136.398 8.56102ZM24.5353 136.334C24.6756 136.238 24.847 136.174 24.9717 136.046C25.5328 135.468 26.0627 134.875 26.6238 134.314C27.4187 133.528 28.0889 132.598 29.1176 132.069C29.4917 131.876 29.7567 131.491 29.9749 131.091C30.084 130.882 30.271 130.69 30.4425 130.513C31.2529 129.776 32.0634 129.07 32.8739 128.332C33.0142 128.204 33.0765 127.98 33.2324 127.691C32.9986 127.691 32.8427 127.643 32.7492 127.707C32.5778 127.819 32.3907 127.98 32.3128 128.156C32.1881 128.461 32.0011 128.637 31.7361 128.781C31.4867 128.926 31.2374 129.07 31.0036 129.246C30.536 129.583 30.084 129.952 29.632 130.305C29.5229 130.946 28.9618 131.091 28.5254 131.363C28.4007 131.443 28.2916 131.524 28.1825 131.62C27.0447 132.694 26.016 133.865 24.9873 135.067C24.8002 135.292 24.6288 135.533 24.5197 135.805C24.4573 135.949 24.5353 136.142 24.5353 136.318C24.5041 136.318 24.4729 136.334 24.4573 136.334C24.4418 136.334 24.4418 136.366 24.4418 136.382C24.4885 136.398 24.5197 136.366 24.5353 136.334ZM79.9132 149.003C79.9132 149.019 79.9288 149.051 79.9288 149.067C79.9132 149.051 79.8976 149.019 79.8976 149.003C80.1781 148.858 80.4587 148.698 80.7548 148.602C80.9886 148.538 81.2068 148.473 81.4406 148.329C82.594 147.591 83.8409 147.046 85.1034 146.533C85.2593 146.469 85.4307 146.389 85.571 146.293C85.9139 146.02 86.2412 145.747 86.5685 145.459C86.8802 145.186 86.8802 145.106 86.6153 144.48C86.4126 144.497 86.21 144.497 85.9918 144.545C85.8515 144.577 85.6645 144.625 85.6177 144.705C85.3995 145.25 84.8696 145.378 84.4644 145.603C83.2486 146.277 81.9861 146.886 80.7548 147.527C80.5055 147.656 80.2561 147.816 80.0067 147.976C79.8664 148.073 79.7261 148.201 79.6015 148.329C79.4612 148.489 79.5079 148.666 79.6638 148.81C79.7417 148.874 79.8352 148.938 79.9132 149.003ZM76.9518 27.6116L76.9674 27.6757L76.9362 27.6436C77.3259 27.3229 77.7155 27.0182 78.1052 26.6815C78.2454 26.5692 78.3546 26.3928 78.5104 26.3287C79.3988 25.9599 80.0223 25.2383 80.7081 24.5968C80.9419 24.3723 81.1757 24.1157 81.4718 24.0035C82.4381 23.6347 83.1084 22.8329 83.9188 22.2556C84.4176 21.9028 84.8228 21.4217 85.2437 20.9727C85.3216 20.8926 85.3372 20.6841 85.306 20.5558C85.2593 20.3313 85.0411 20.2832 84.8852 20.3313C84.3397 20.5077 83.8409 20.7322 83.4045 21.1491C83.0148 21.5179 82.5784 21.8547 82.142 22.1594C81.7056 22.448 81.4406 22.9772 80.8795 23.1376C80.6613 23.2017 80.4431 23.4262 80.3184 23.6347C80.0535 24.0837 79.6482 24.2761 79.2118 24.4525C78.9468 24.5648 78.6663 24.677 78.4637 24.8694C77.9181 25.3345 77.4038 25.8637 76.8739 26.3447C76.718 26.489 76.5465 26.6334 76.3595 26.7296C75.5023 27.2427 74.6294 27.7398 73.7566 28.253C73.1332 28.6218 72.5097 28.9906 71.9174 29.3915C71.4343 29.7122 70.9043 30.0009 70.5614 30.4499C70.1562 30.963 69.6263 31.2517 69.1587 31.6365C68.3794 32.278 67.5533 32.8713 66.7428 33.4807C66.1973 33.8815 65.6362 34.2824 65.0595 34.6352C64.7789 34.8116 64.514 34.956 64.3893 35.3087C64.3114 35.5332 64.0776 35.5653 63.8905 35.6615C62.9553 36.1586 61.8955 36.4633 61.1785 37.3613C61.085 37.4736 60.9603 37.5537 60.8512 37.6339C60.0875 38.1791 59.3238 38.7083 58.56 39.2535C58.3574 39.3979 58.2015 39.5903 58.0301 39.7667C58.1392 39.9912 58.2795 40.0714 58.4821 40.0233C59.2147 39.8308 59.8693 39.4941 60.5083 39.0611C61.5682 38.3235 62.5813 37.5537 63.7658 36.9925C64.6231 36.5756 65.4336 35.9822 66.057 35.1965C66.5714 34.5551 67.2104 34.2504 67.9585 34.074C68.2547 34.0098 68.6132 33.8976 68.8158 33.6731C69.0496 33.4165 69.3145 33.2882 69.5951 33.1439C70.2029 32.8232 70.8576 32.5666 71.3719 32.1176C71.9018 31.6526 72.385 31.1394 72.9305 30.6744C73.6007 30.1131 74.3177 29.6481 74.9879 29.1029C75.5802 28.5577 76.2816 28.1087 76.9518 27.6116ZM27.294 54.1989C27.4031 54.6158 27.6525 54.7281 27.9019 54.696C28.7591 54.5517 29.6008 54.3112 30.1931 53.6216C30.5827 53.1726 31.0347 52.9 31.5491 52.8359C32.266 52.7557 32.6869 52.2907 33.1389 51.8577C33.2324 51.7615 33.2947 51.6011 33.3259 51.4728C33.3571 51.3766 33.3415 51.2163 33.2947 51.1681C33.2012 51.104 33.0142 51.0238 32.9207 51.0719C31.9855 51.537 31.0815 52.018 30.1463 52.4991C29.9905 52.5793 29.8346 52.6595 29.6631 52.7236C28.7903 53.0283 28.0266 53.5735 27.294 54.1989ZM33.3571 57.6627C33.8558 58.1117 33.8714 58.0956 34.0896 58.1117C35.243 58.1598 36.2094 57.5985 37.1757 57.0533C37.3783 56.941 37.5186 56.6845 37.6589 56.476C37.7524 56.3156 37.7524 56.1232 37.581 55.9789C37.4719 55.8827 37.3627 55.8025 37.1913 55.6902C36.5679 55.9308 35.9288 56.1232 35.3365 56.4279C34.6819 56.7646 34.0741 57.1976 33.3571 57.6627ZM79.5391 145.699C80.0535 146.453 80.0379 146.437 80.7237 146.228C81.2068 146.084 81.6588 145.876 82.0797 145.603C82.594 145.266 83.1239 144.962 83.6383 144.641C83.9344 144.464 84.0591 144.176 83.95 143.919C83.8565 143.695 83.498 143.582 83.1863 143.711C83.0928 143.743 82.9993 143.823 82.9057 143.871C82.5628 144.064 82.2044 144.24 81.877 144.464C81.3939 144.801 80.9107 145.09 80.3028 144.929C80.0379 145.202 79.7885 145.459 79.5391 145.699ZM34.791 50.1739C34.9625 50.2862 35.0716 50.3984 35.1807 50.4305C35.773 50.5748 36.3029 50.3503 36.8016 50.0617C37.0199 49.9334 37.2225 49.6929 37.4407 49.6768C37.9083 49.6447 38.22 49.3401 38.6096 49.1637C38.672 49.1316 38.7032 49.0514 38.7343 49.0193C38.7343 48.7948 38.7343 48.5864 38.7343 48.3138C38.5161 48.3138 38.3291 48.2657 38.1888 48.3298C37.5965 48.5864 37.0199 48.859 36.4432 49.1316C36.0535 49.308 35.6638 49.4844 35.2898 49.6929C35.1183 49.8051 34.9936 49.9815 34.791 50.1739ZM30.6451 140.888C30.9568 141.177 31.2685 141.45 31.5335 141.69C32.1414 141.514 32.3907 141.097 32.4687 140.552C32.531 140.167 32.4219 139.878 32.0946 139.75C31.7985 139.638 31.5023 139.461 31.0971 139.638C30.9568 140.023 30.8009 140.456 30.6451 140.888ZM36.225 129.679C35.5859 129.936 35.1495 130.032 34.8222 130.417C34.5572 130.706 34.2455 130.994 33.8247 131.01C33.0454 131.026 32.4998 131.508 31.9699 132.005C31.9076 132.069 31.9232 132.181 31.892 132.309C32.0323 132.325 32.1569 132.373 32.2349 132.341C32.7804 132.069 33.3259 131.796 33.8558 131.508C34.1676 131.331 34.4481 131.075 34.7754 130.978C35.2586 130.834 35.6015 130.497 35.9912 130.225C36.0691 130.161 36.0847 130.032 36.225 129.679ZM81.6277 21.6943C80.9419 21.5981 80.4899 21.6142 80.1158 21.9188C79.8197 22.1754 79.5859 22.4961 79.7261 23.0253C79.9288 23.0093 80.1781 23.0413 80.3028 22.9451C80.7081 22.6084 81.0821 22.2235 81.6277 21.6943ZM127.763 11.239C127.249 11.0947 126.875 11.255 126.563 11.5757C126.485 11.6559 126.5 11.8484 126.5 11.9927C126.5 12.1691 126.61 12.2653 126.781 12.2172C127.249 12.0889 127.545 11.7682 127.763 11.239ZM131.005 12.0408C130.989 11.8644 130.646 11.672 130.491 11.7842C130.319 11.8965 130.163 12.0568 130.039 12.2172C129.898 12.3936 130.039 12.6501 130.257 12.7143C130.646 12.8105 131.052 12.4577 131.005 12.0408ZM42.553 45.9244C42.0854 45.8122 41.7581 46.165 41.3684 46.2612C41.1658 46.3093 40.8852 46.4055 40.9632 46.6461C41.0723 46.9668 41.2905 46.6461 41.4619 46.6461C41.9607 46.6461 42.288 46.3734 42.553 45.9244ZM141.541 52.4831C141.214 52.6114 141.011 52.6595 140.855 52.7717C140.777 52.8198 140.777 53.0283 140.809 53.1406C140.824 53.2047 140.98 53.2528 141.074 53.2528C141.432 53.2528 141.432 52.9161 141.541 52.4831ZM178.496 68.7594C178.683 68.9358 178.777 69.0801 178.917 69.1282C179.01 69.1603 179.198 69.0801 179.26 69C179.322 68.9037 179.291 68.7273 179.244 68.6151C179.213 68.551 179.073 68.4868 178.995 68.5029C178.855 68.5349 178.714 68.6311 178.496 68.7594ZM34.8222 48.8911C34.4793 48.9071 34.1208 48.9231 33.9338 49.3401C34.4949 49.2599 34.4949 49.2599 34.8222 48.8911ZM40.5112 47.7365C40.1215 47.4478 39.9189 47.5441 39.763 47.7846C39.7163 47.8487 39.7007 48.0091 39.7474 48.0572C39.7942 48.1213 39.9501 48.2015 40.0124 48.1695C40.1839 48.0572 40.3241 47.9129 40.5112 47.7365ZM57.8898 35.3889C57.8431 35.3087 57.8275 35.2125 57.7963 35.2125C57.734 35.1965 57.656 35.2286 57.6249 35.2767C57.5937 35.3087 57.6249 35.3889 57.6404 35.437C57.7184 35.421 57.8119 35.405 57.8898 35.3889ZM82.5317 150.686C82.4693 150.767 82.407 150.831 82.3602 150.911C82.3914 150.927 82.4226 150.975 82.4537 150.959C82.5317 150.927 82.6096 150.879 82.6875 150.831C82.6408 150.799 82.6096 150.767 82.5317 150.686ZM140.918 3.54181C140.84 3.58992 140.762 3.62199 140.762 3.65406C140.762 3.7182 140.777 3.79838 140.824 3.83045C140.855 3.86253 140.933 3.81442 140.996 3.79838C140.964 3.7182 140.933 3.63803 140.918 3.54181ZM129.696 12.5539C129.649 12.586 129.602 12.6181 129.555 12.6662C129.54 12.6822 129.555 12.7624 129.571 12.7624C129.618 12.7624 129.68 12.7624 129.727 12.7464C129.727 12.6983 129.711 12.6341 129.696 12.5539ZM35.8821 48.2657H35.8197L35.8509 48.3458L35.8821 48.2657ZM33.3259 105.161C33.2636 105.145 33.2012 105.113 33.1389 105.097C33.1233 105.097 33.0921 105.145 33.0609 105.161C33.1077 105.193 33.1545 105.257 33.2012 105.257C33.2324 105.273 33.2792 105.209 33.3259 105.161ZM152.046 37.1689L152.077 37.233L152.109 37.1689H152.046Z" fill="#C3D3C4"/>
</svg>
